<svg xmlns="http://www.w3.org/2000/svg" version="1.1" xmlns:xlink="http://www.w3.org/1999/xlink" xmlns:svgjs="http://svgjs.dev/svgjs" viewBox="0 0 7.9884777008927825 6.515165273279114"><g transform="matrix(1,0,0,1,0.6005675857979536,4.848097687481161)"><g><path d=" M 0.5145 0.0015000000000000568 L 0.5145 0.031500000000000083 Q 0.4665 0.03300000000000014 0.44175000000000003 0.042750000000000066 Q 0.417 0.05249999999999999 0.40950000000000003 0.0787500000000001 Q 0.402 0.1050000000000001 0.402 0.1605000000000001 L 0.402 0.9045000000000001 Q 0.402 0.9585000000000001 0.41025 0.9855000000000002 Q 0.4185 1.0125000000000002 0.4425 1.0215 Q 0.4665 1.0305000000000002 0.5145 1.0335 L 0.5145 1.0635000000000001 Q 0.47400000000000003 1.0605000000000002 0.41250000000000003 1.0597500000000002 Q 0.35100000000000003 1.0590000000000002 0.28800000000000003 1.0590000000000002 Q 0.2145 1.0590000000000002 0.15225 1.0597500000000002 Q 0.09 1.0605000000000002 0.051000000000000004 1.0635000000000001 L 0.051000000000000004 1.0335 Q 0.099 1.0305000000000002 0.123 1.0215 Q 0.147 1.0125000000000002 0.15525 0.9855000000000002 Q 0.1635 0.9585000000000001 0.1635 0.9045000000000001 L 0.1635 0.1605000000000001 Q 0.1635 0.1050000000000001 0.15525 0.0787500000000001 Q 0.147 0.05249999999999999 0.12225 0.042750000000000066 Q 0.0975 0.03300000000000014 0.051000000000000004 0.031500000000000083 L 0.051000000000000004 0.0015000000000000568 Q 0.09 0.0030000000000001137 0.15225 0.0045000000000001705 Q 0.2145 0.006000000000000005 0.28800000000000003 0.006000000000000005 Q 0.35100000000000003 0.006000000000000005 0.41250000000000003 0.0045000000000001705 Q 0.47400000000000003 0.0030000000000001137 0.5145 0.0015000000000000568 M 1.61846484375 0.0015000000000000568 L 1.61846484375 0.031500000000000083 Q 1.57046484375 0.03750000000000009 1.54646484375 0.05625000000000013 Q 1.52246484375 0.07500000000000007 1.51421484375 0.11550000000000005 Q 1.5059648437500002 0.15600000000000014 1.5059648437500002 0.22950000000000015 L 1.5059648437500002 1.0665 Q 1.48796484375 1.0650000000000002 1.46921484375 1.0650000000000002 Q 1.45046484375 1.0650000000000002 1.42946484375 1.0665 L 0.77846484375 0.24150000000000005 L 0.77846484375 0.8175000000000001 Q 0.77846484375 0.9000000000000001 0.78746484375 0.9442500000000001 Q 0.79646484375 0.9885000000000002 0.82721484375 1.0072500000000002 Q 0.85796484375 1.026 0.9239648437500001 1.0335 L 0.9239648437500001 1.0635000000000001 Q 0.89546484375 1.0605000000000002 0.84896484375 1.0597500000000002 Q 0.80246484375 1.0590000000000002 0.76196484375 1.0590000000000002 Q 0.72746484375 1.0590000000000002 0.6914648437500001 1.0597500000000002 Q 0.65546484375 1.0605000000000002 0.63146484375 1.0635000000000001 L 0.63146484375 1.0335 Q 0.67946484375 1.026 0.70346484375 1.008 Q 0.72746484375 0.9900000000000001 0.7357148437500001 0.9487500000000001 Q 0.74396484375 0.9075000000000001 0.74396484375 0.8355000000000001 L 0.74396484375 0.1605000000000001 Q 0.74396484375 0.1050000000000001 0.7357148437500001 0.0787500000000001 Q 0.72746484375 0.05249999999999999 0.70271484375 0.042750000000000066 Q 0.67796484375 0.03300000000000014 0.63146484375 0.031500000000000083 L 0.63146484375 0.0015000000000000568 Q 0.65546484375 0.0030000000000001137 0.6914648437500001 0.0045000000000001705 Q 0.72746484375 0.006000000000000005 0.76196484375 0.006000000000000005 Q 0.79796484375 0.006000000000000005 0.83096484375 0.0045000000000001705 Q 0.86396484375 0.0030000000000001137 0.89096484375 0.0015000000000000568 L 1.4714648437500002 0.7170000000000001 L 1.4714648437500002 0.24750000000000005 Q 1.4714648437500002 0.16500000000000015 1.46246484375 0.12075000000000014 Q 1.45346484375 0.07650000000000012 1.4227148437500001 0.05700000000000016 Q 1.39196484375 0.03750000000000009 1.32596484375 0.031500000000000083 L 1.32596484375 0.0015000000000000568 Q 1.35446484375 0.0030000000000001137 1.4009648437500002 0.0045000000000001705 Q 1.4474648437500002 0.006000000000000005 1.48796484375 0.006000000000000005 Q 1.52396484375 0.006000000000000005 1.55921484375 0.0045000000000001705 Q 1.59446484375 0.0030000000000001137 1.61846484375 0.0015000000000000568 M 2.530442138671875 0.0015000000000000568 Q 2.5244421386718754 0.06900000000000006 2.5221921386718753 0.13200000000000012 Q 2.519942138671875 0.19500000000000006 2.519942138671875 0.22950000000000015 Q 2.519942138671875 0.26250000000000007 2.5214421386718753 0.2925000000000001 Q 2.5229421386718753 0.3225000000000001 2.5244421386718754 0.34350000000000014 L 2.4899421386718754 0.34350000000000014 Q 2.470442138671875 0.22650000000000015 2.435942138671875 0.15975000000000006 Q 2.401442138671875 0.09300000000000008 2.351192138671875 0.06450000000000011 Q 2.3009421386718754 0.03600000000000003 2.2319421386718754 0.03600000000000003 L 2.1824421386718753 0.03600000000000003 Q 2.1389421386718754 0.03600000000000003 2.116442138671875 0.043500000000000094 Q 2.093942138671875 0.051000000000000156 2.0864421386718752 0.07350000000000012 Q 2.0789421386718754 0.09600000000000009 2.0789421386718754 0.14250000000000007 L 2.0789421386718754 0.8955000000000001 Q 2.0789421386718754 0.9540000000000001 2.0909421386718754 0.9825000000000002 Q 2.1029421386718754 1.0110000000000001 2.1374421386718754 1.02 Q 2.1719421386718754 1.0290000000000001 2.2394421386718752 1.0305000000000002 L 2.2394421386718752 1.0635000000000001 Q 2.1929421386718753 1.062 2.119442138671875 1.0605000000000002 Q 2.045942138671875 1.0590000000000002 1.9649421386718753 1.0590000000000002 Q 1.9004421386718753 1.0590000000000002 1.8389421386718752 1.0605000000000002 Q 1.7774421386718753 1.062 1.7279421386718752 1.0635000000000001 L 1.7279421386718752 1.0335 Q 1.7759421386718752 1.0305000000000002 1.7999421386718752 1.0215 Q 1.8239421386718753 1.0125000000000002 1.8321921386718754 0.9855000000000002 Q 1.8404421386718752 0.9585000000000001 1.8404421386718752 0.9045000000000001 L 1.8404421386718752 0.1605000000000001 Q 1.8404421386718752 0.1050000000000001 1.8321921386718754 0.0787500000000001 Q 1.8239421386718753 0.05249999999999999 1.7991921386718752 0.042750000000000066 Q 1.7744421386718752 0.03300000000000014 1.7279421386718752 0.031500000000000083 L 1.7279421386718752 0.0015000000000000568 Q 1.8089421386718754 0.0030000000000001137 1.9034421386718752 0.0045000000000001705 Q 1.9979421386718752 0.006000000000000005 2.0819421386718755 0.006000000000000005 Q 2.165942138671875 0.006000000000000005 2.2169421386718753 0.006000000000000005 Q 2.2859421386718752 0.006000000000000005 2.373692138671875 0.005250000000000199 Q 2.4614421386718752 0.0045000000000001705 2.530442138671875 0.0015000000000000568 M 2.306942138671875 0.5205000000000001 Q 2.306942138671875 0.5205000000000001 2.306942138671875 0.5355000000000001 Q 2.306942138671875 0.5505000000000001 2.306942138671875 0.5505000000000001 L 2.0339421386718755 0.5505000000000001 Q 2.0339421386718755 0.5505000000000001 2.0339421386718755 0.5355000000000001 Q 2.0339421386718755 0.5205000000000001 2.0339421386718755 0.5205000000000001 L 2.306942138671875 0.5205000000000001 M 2.3444421386718752 0.3225000000000001 Q 2.3384421386718754 0.40800000000000014 2.3391921386718755 0.45300000000000007 Q 2.3399421386718755 0.4980000000000001 2.3399421386718755 0.5355000000000001 Q 2.3399421386718755 0.5730000000000002 2.341442138671875 0.6180000000000001 Q 2.342942138671875 0.663 2.3489421386718754 0.7485000000000002 L 2.3144421386718754 0.7485000000000002 Q 2.305442138671875 0.6960000000000002 2.2859421386718752 0.651 Q 2.2664421386718754 0.6060000000000001 2.2289421386718753 0.5782500000000002 Q 2.191442138671875 0.5505000000000001 2.131442138671875 0.5505000000000001 L 2.131442138671875 0.5205000000000001 Q 2.191442138671875 0.5205000000000001 2.2274421386718752 0.48750000000000004 Q 2.2634421386718753 0.4545000000000001 2.282192138671875 0.40875000000000006 Q 2.3009421386718754 0.3630000000000001 2.3099421386718753 0.3225000000000001 L 2.3444421386718752 0.3225000000000001 M 3.0944121093750003 0.0015000000000000568 L 3.0944121093750003 0.031500000000000083 Q 3.0464121093750003 0.03300000000000014 3.0216621093750002 0.042750000000000066 Q 2.996912109375 0.05249999999999999 2.9894121093750003 0.0787500000000001 Q 2.9819121093750005 0.1050000000000001 2.9819121093750005 0.1605000000000001 L 2.9819121093750005 0.9045000000000001 Q 2.9819121093750005 0.9585000000000001 2.9901621093750004 0.9855000000000002 Q 2.9984121093750002 1.0125000000000002 3.0224121093750003 1.0215 Q 3.0464121093750003 1.0305000000000002 3.0944121093750003 1.0335 L 3.0944121093750003 1.0635000000000001 Q 3.0539121093750006 1.0605000000000002 2.9924121093750005 1.0597500000000002 Q 2.9309121093750004 1.0590000000000002 2.867912109375 1.0590000000000002 Q 2.7944121093750005 1.0590000000000002 2.7321621093750004 1.0597500000000002 Q 2.6699121093750002 1.0605000000000002 2.6309121093750005 1.0635000000000001 L 2.6309121093750005 1.0335 Q 2.6789121093750006 1.0305000000000002 2.702912109375 1.0215 Q 2.726912109375 1.0125000000000002 2.7351621093750005 0.9855000000000002 Q 2.7434121093750004 0.9585000000000001 2.7434121093750004 0.9045000000000001 L 2.7434121093750004 0.1605000000000001 Q 2.7434121093750004 0.1050000000000001 2.7351621093750005 0.0787500000000001 Q 2.726912109375 0.05249999999999999 2.7021621093750006 0.042750000000000066 Q 2.6774121093750005 0.03300000000000014 2.6309121093750005 0.031500000000000083 L 2.6309121093750005 0.0015000000000000568 Q 2.6699121093750002 0.0030000000000001137 2.7321621093750004 0.0045000000000001705 Q 2.7944121093750005 0.006000000000000005 2.867912109375 0.006000000000000005 Q 2.9309121093750004 0.006000000000000005 2.9924121093750005 0.0045000000000001705 Q 3.0539121093750006 0.0030000000000001137 3.0944121093750003 0.0015000000000000568 M 4.198376953125001 0.0015000000000000568 L 4.198376953125001 0.031500000000000083 Q 4.150376953125001 0.03750000000000009 4.126376953125001 0.05625000000000013 Q 4.102376953125001 0.07500000000000007 4.094126953125 0.11550000000000005 Q 4.085876953125 0.15600000000000014 4.085876953125 0.22950000000000015 L 4.085876953125 1.0665 Q 4.067876953125 1.0650000000000002 4.0491269531250005 1.0650000000000002 Q 4.030376953125001 1.0650000000000002 4.009376953125001 1.0665 L 3.3583769531250005 0.24150000000000005 L 3.3583769531250005 0.8175000000000001 Q 3.3583769531250005 0.9000000000000001 3.3673769531250004 0.9442500000000001 Q 3.3763769531250003 0.9885000000000002 3.4071269531250006 1.0072500000000002 Q 3.4378769531250004 1.026 3.5038769531250007 1.0335 L 3.5038769531250007 1.0635000000000001 Q 3.4753769531250005 1.0605000000000002 3.4288769531250005 1.0597500000000002 Q 3.3823769531250005 1.0590000000000002 3.3418769531250003 1.0590000000000002 Q 3.3073769531250004 1.0590000000000002 3.2713769531250003 1.0597500000000002 Q 3.2353769531250003 1.0605000000000002 3.2113769531250007 1.0635000000000001 L 3.2113769531250007 1.0335 Q 3.2593769531250003 1.026 3.2833769531250003 1.008 Q 3.3073769531250004 0.9900000000000001 3.3156269531250007 0.9487500000000001 Q 3.3238769531250005 0.9075000000000001 3.3238769531250005 0.8355000000000001 L 3.3238769531250005 0.1605000000000001 Q 3.3238769531250005 0.1050000000000001 3.3156269531250007 0.0787500000000001 Q 3.3073769531250004 0.05249999999999999 3.2826269531250003 0.042750000000000066 Q 3.2578769531250007 0.03300000000000014 3.2113769531250007 0.031500000000000083 L 3.2113769531250007 0.0015000000000000568 Q 3.2353769531250003 0.0030000000000001137 3.2713769531250003 0.0045000000000001705 Q 3.3073769531250004 0.006000000000000005 3.3418769531250003 0.006000000000000005 Q 3.3778769531250004 0.006000000000000005 3.4108769531250003 0.0045000000000001705 Q 3.4438769531250006 0.0030000000000001137 3.4708769531250003 0.0015000000000000568 L 4.051376953125001 0.7170000000000001 L 4.051376953125001 0.24750000000000005 Q 4.051376953125001 0.16500000000000015 4.042376953125 0.12075000000000014 Q 4.033376953125001 0.07650000000000012 4.0026269531250005 0.05700000000000016 Q 3.9718769531250007 0.03750000000000009 3.9058769531250004 0.031500000000000083 L 3.9058769531250004 0.0015000000000000568 Q 3.9343769531250006 0.0030000000000001137 3.9808769531250006 0.0045000000000001705 Q 4.0273769531250005 0.006000000000000005 4.067876953125 0.006000000000000005 Q 4.103876953125001 0.006000000000000005 4.139126953125 0.0045000000000001705 Q 4.174376953125001 0.0030000000000001137 4.198376953125001 0.0015000000000000568 M 4.771354248046876 0.0015000000000000568 L 4.771354248046876 0.031500000000000083 Q 4.723354248046876 0.03300000000000014 4.698604248046876 0.042750000000000066 Q 4.673854248046876 0.05249999999999999 4.6663542480468765 0.0787500000000001 Q 4.658854248046876 0.1050000000000001 4.658854248046876 0.1605000000000001 L 4.658854248046876 0.9045000000000001 Q 4.658854248046876 0.9585000000000001 4.667104248046876 0.9855000000000002 Q 4.675354248046876 1.0125000000000002 4.699354248046876 1.0215 Q 4.723354248046876 1.0305000000000002 4.771354248046876 1.0335 L 4.771354248046876 1.0635000000000001 Q 4.730854248046876 1.0605000000000002 4.669354248046876 1.0597500000000002 Q 4.607854248046876 1.0590000000000002 4.544854248046876 1.0590000000000002 Q 4.471354248046876 1.0590000000000002 4.4091042480468765 1.0597500000000002 Q 4.346854248046876 1.0605000000000002 4.307854248046876 1.0635000000000001 L 4.307854248046876 1.0335 Q 4.355854248046876 1.0305000000000002 4.379854248046876 1.0215 Q 4.403854248046876 1.0125000000000002 4.412104248046876 0.9855000000000002 Q 4.420354248046876 0.9585000000000001 4.420354248046876 0.9045000000000001 L 4.420354248046876 0.1605000000000001 Q 4.420354248046876 0.1050000000000001 4.412104248046876 0.0787500000000001 Q 4.403854248046876 0.05249999999999999 4.379104248046876 0.042750000000000066 Q 4.354354248046876 0.03300000000000014 4.307854248046876 0.031500000000000083 L 4.307854248046876 0.0015000000000000568 Q 4.346854248046876 0.0030000000000001137 4.4091042480468765 0.0045000000000001705 Q 4.471354248046876 0.006000000000000005 4.544854248046876 0.006000000000000005 Q 4.607854248046876 0.006000000000000005 4.669354248046876 0.0045000000000001705 Q 4.730854248046876 0.0030000000000001137 4.771354248046876 0.0015000000000000568 M 5.798819091796876 0.0015000000000000568 Q 5.792819091796876 0.07800000000000007 5.7905690917968755 0.14850000000000008 Q 5.788319091796875 0.21900000000000008 5.788319091796875 0.25650000000000006 Q 5.788319091796875 0.2895000000000001 5.7898190917968755 0.3195000000000001 Q 5.7913190917968755 0.34950000000000014 5.792819091796876 0.37050000000000005 L 5.758319091796876 0.37050000000000005 Q 5.734319091796876 0.24450000000000005 5.6975690917968755 0.17100000000000004 Q 5.660819091796876 0.09750000000000014 5.609819091796876 0.06675000000000009 Q 5.558819091796876 0.03600000000000003 5.489819091796876 0.03600000000000003 L 5.455319091796876 0.03600000000000003 L 5.455319091796876 0.8925000000000001 Q 5.455319091796876 0.9525000000000001 5.468069091796876 0.9825000000000002 Q 5.480819091796876 1.0125000000000002 5.515319091796876 1.02225 Q 5.549819091796875 1.032 5.615819091796876 1.0335 L 5.615819091796876 1.0635000000000001 Q 5.569319091796876 1.062 5.492069091796876 1.0605000000000002 Q 5.4148190917968755 1.0590000000000002 5.330819091796876 1.0590000000000002 Q 5.248319091796875 1.0590000000000002 5.174819091796876 1.0605000000000002 Q 5.101319091796876 1.062 5.056319091796876 1.0635000000000001 L 5.056319091796876 1.0335 Q 5.123819091796876 1.032 5.1583190917968755 1.02225 Q 5.192819091796876 1.0125000000000002 5.2048190917968755 0.9825000000000002 Q 5.216819091796876 0.9525000000000001 5.216819091796876 0.8925000000000001 L 5.216819091796876 0.03600000000000003 L 5.183819091796876 0.03600000000000003 Q 5.114819091796876 0.03600000000000003 5.0638190917968755 0.06675000000000009 Q 5.012819091796875 0.09750000000000014 4.976819091796876 0.17025000000000012 Q 4.940819091796876 0.2430000000000001 4.913819091796876 0.37050000000000005 L 4.879319091796876 0.37050000000000005 Q 4.882319091796876 0.34950000000000014 4.883069091796876 0.3195000000000001 Q 4.883819091796876 0.2895000000000001 4.883819091796876 0.25650000000000006 Q 4.883819091796876 0.21900000000000008 4.881569091796876 0.14850000000000008 Q 4.879319091796876 0.07800000000000007 4.873319091796875 0.0015000000000000568 Q 4.942319091796875 0.0030000000000001137 5.024069091796876 0.0045000000000001705 Q 5.105819091796876 0.006000000000000005 5.188319091796876 0.006000000000000005 Q 5.270819091796875 0.006000000000000005 5.336819091796876 0.006000000000000005 Q 5.404319091796876 0.006000000000000005 5.4860690917968755 0.006000000000000005 Q 5.567819091796876 0.006000000000000005 5.6503190917968755 0.0045000000000001705 Q 5.732819091796876 0.0030000000000001137 5.798819091796876 0.0015000000000000568 M 6.77836376953125 0 L 6.77836376953125 0.030000000000000027 Q 6.7453637695312505 0.043500000000000094 6.71086376953125 0.08325000000000005 Q 6.6763637695312505 0.12300000000000011 6.634363769531251 0.20400000000000007 L 6.350863769531251 0.7650000000000001 L 6.280363769531251 0.7650000000000001 L 5.929363769531251 0.11550000000000005 Q 5.9023637695312505 0.06450000000000011 5.880613769531251 0.04800000000000004 Q 5.858863769531251 0.031500000000000083 5.84236376953125 0.031500000000000083 L 5.84236376953125 0 Q 5.882863769531251 0.0045000000000001705 5.9256137695312505 0.006000000000000005 Q 5.96836376953125 0.007500000000000062 6.0193637695312505 0.007500000000000062 Q 6.08536376953125 0.007500000000000062 6.161863769531251 0.005250000000000199 Q 6.238363769531251 0.0030000000000001137 6.3013637695312505 0 L 6.3013637695312505 0.031500000000000083 Q 6.26386376953125 0.031500000000000083 6.233863769531251 0.03750000000000009 Q 6.20386376953125 0.043500000000000094 6.191863769531251 0.059250000000000025 Q 6.17986376953125 0.07500000000000007 6.19786376953125 0.10950000000000004 L 6.43486376953125 0.5655000000000001 L 6.38836376953125 0.6255000000000002 L 6.542863769531251 0.31500000000000006 Q 6.59836376953125 0.20700000000000007 6.60211376953125 0.14550000000000007 Q 6.6058637695312505 0.08400000000000007 6.57211376953125 0.05775000000000019 Q 6.538363769531251 0.031500000000000083 6.47686376953125 0.030000000000000027 L 6.47686376953125 0 Q 6.52786376953125 0.0015000000000000568 6.57286376953125 0.0030000000000001137 Q 6.61786376953125 0.0045000000000001705 6.66436376953125 0.0045000000000001705 Q 6.6973637695312505 0.0045000000000001705 6.726613769531251 0.0030000000000001137 Q 6.755863769531251 0.0015000000000000568 6.77836376953125 0 M 6.45736376953125 0.5280000000000001 L 6.45736376953125 0.9045000000000001 Q 6.45736376953125 0.9585000000000001 6.4656137695312506 0.9855000000000002 Q 6.473863769531251 1.0125000000000002 6.49786376953125 1.0215 Q 6.521863769531251 1.0305000000000002 6.56986376953125 1.0335 L 6.56986376953125 1.0635000000000001 Q 6.52936376953125 1.0605000000000002 6.4656137695312506 1.0597500000000002 Q 6.401863769531251 1.0590000000000002 6.33886376953125 1.0590000000000002 Q 6.26836376953125 1.0590000000000002 6.2053637695312505 1.0597500000000002 Q 6.142363769531251 1.0605000000000002 6.10636376953125 1.0635000000000001 L 6.10636376953125 1.0335 Q 6.15436376953125 1.0305000000000002 6.17836376953125 1.0215 Q 6.20236376953125 1.0125000000000002 6.210613769531251 0.9855000000000002 Q 6.21886376953125 0.9585000000000001 6.21886376953125 0.9045000000000001 L 6.21886376953125 0.5970000000000001 L 6.349363769531251 0.6900000000000002 L 6.45736376953125 0.5280000000000001" fill="#ffffff" fill-rule="nonzero"></path></g><g></g><g clip-path="url(#SvgjsClipPath1001)"><g clip-path="url(#bbfaa1a42-21c2-4f01-994f-e464d5119d30d9e53054-0b6f-4ce2-b518-9f0298757676)"><path d=" M 3.3936760301712052 -3.501139019535523 C 3.6554145247096685 -3.501139019535523 3.901357619540702 -3.399195703632353 4.08644481856642 -3.2142054088993177 L 4.262229205494511 -3.389989795827409 C 4.032120761064217 -3.6207173318827 3.71953630969398 -3.750208134955074 3.3936760301712052 -3.749795434561698 C 3.06781575064843 -3.7502081349550744 2.755231299278194 -3.6207173318827 2.5251228548478997 -3.389989795827409 L 2.7009072417759903 -3.2142054088993177 C 2.8842416369164545 -3.3985333634539963 3.1336995255433413 -3.5018547801869957 3.393676030171205 -3.501139019535523" fill="#1192dc" transform="matrix(1,0,0,1,0,0)" fill-rule="nonzero"></path></g><g clip-path="url(#bbfaa1a42-21c2-4f01-994f-e464d5119d30d9e53054-0b6f-4ce2-b518-9f0298757676)"><path d=" M 3.3936760301712052 -3.0026633379709713 C 3.5213972615601077 -3.003007112946041 3.6439468548310456 -2.9522355701757634 3.7340039060760866 -2.861667592116301 L 3.909788293004177 -3.0375488833370756 C 3.773032907948921 -3.174617775402276 3.587299026066915 -3.2515477309846474 3.3936760301712052 -3.251319752997146 C 3.2000530342754954 -3.2515477309846474 3.014319152393489 -3.174617775402276 2.8775637673382333 -3.0375488833370756 L 3.053348154266324 -2.861667592116301 C 3.143405205511365 -2.9522355701757634 3.2659547987823023 -3.003007112946041 3.3936760301712052 -3.0026633379709713" fill="#1192dc" transform="matrix(1,0,0,1,0,0)" fill-rule="nonzero"></path></g><g clip-path="url(#bbfaa1a42-21c2-4f01-994f-e464d5119d30d9e53054-0b6f-4ce2-b518-9f0298757676)"><path d=" M 3.5550216774894356 -2.3599940688931893 C 3.4659129370239987 -2.2708585690462315 3.3214174305535895 -2.270836876281411 3.232281930706632 -2.3599456167468476 C 3.143146430859674 -2.449054357212284 3.1431247380948535 -2.5935498636826932 3.23223347856029 -2.682685363529651 C 3.3213422190257265 -2.7718208633766093 3.4658377254961357 -2.7718425561414297 3.554973225343094 -2.682733815675993 C 3.6441087251900512 -2.5936250752105563 3.644130417954872 -2.449129568740147 3.5550216774894356 -2.3599940688931893" fill="#1192dc" transform="matrix(1,0,0,1,0,0)" fill-rule="nonzero"></path></g><g clip-path="url(#bbfaa1a42-21c2-4f01-994f-e464d5119d30d9e53054-0b6f-4ce2-b518-9f0298757676)"><path d=" M 3.3936760301712052 -3.998839466758607 C 3.7883672142715983 -3.998839466758607 4.159413750957188 -3.8451492585623823 4.438401209593335 -3.5660648956335503 L 4.6142825008141095 -3.741849282561641 C 4.290914351440229 -4.066114505559861 3.8516220268059707 -4.248095082722576 3.393676030171204 -4.247495881784782 C 2.9357300335364385 -4.248095082722576 2.4964377089021808 -4.06611450555986 2.1730695595282996 -3.741849282561641 L 2.348950850749074 -3.5660648956335503 C 2.625398985551963 -3.8440892212999813 3.0016047298773554 -3.9999314302005655 3.3936760301712057 -3.998839466758607" fill="#1192dc" transform="matrix(1,0,0,1,0,0)" fill-rule="nonzero"></path></g><g clip-path="url(#bbfaa1a42-21c2-4f01-994f-e464d5119d30d9e53054-0b6f-4ce2-b518-9f0298757676)"><path d=" M 2.417171472798344 -1.0438399656642328 L 1.7463030545496276 -1.0438399656642328 L 1.7463030545496276 -1.0442275828349672 L 1.4976466395234531 -1.0442275828349672 L 1.4976466395234531 -1.0438399656642328 C 1.059639236593481 -1.0438399656642328 0.7032252481031185 -1.400253954154595 0.7032252481031185 -1.838261357084567 C 0.7032252481031185 -2.2763656643072236 1.059639236593481 -2.632682748504902 1.4976466395234531 -2.632682748504902 L 1.920343164209413 -2.632682748504902 C 1.9398491866163048 -2.9000834474266863 2.0324340747943563 -3.1569880755934454 2.1879928206015764 -3.3753572476321807 L 2.010076539234447 -3.553370433291996 C 1.8610883655822665 -3.354092546347299 1.7572587838751568 -3.1247746644559595 1.7057970602078734 -2.881339163531077 L 1.4976466395234531 -2.881339163531077 C 0.921647523812003 -2.8813391635310768 0.4546657373696274 -2.4143573770887015 0.4546657373696274 -1.8382613570845674 C 0.4546657373696274 -1.2621653370804338 0.9216475238120028 -0.7951835506380585 1.497646639523453 -0.7951835506380585 L 2.631329959629149 -0.7951835506380585 C 2.548595569535499 -0.8675755564099039 2.476497699148219 -0.9512873823889807 2.4171714727983438 -1.0438399656642328 M 5.289608516526273 -2.8813391635310763 L 5.081458095841852 -2.8813391635310763 C 5.030034337288782 -3.1247696140208907 4.926237254520227 -3.3540887503700265 4.7772755211079625 -3.5533704332919953 L 4.599262335448149 -3.3753572476321825 C 4.754851122117967 -3.156996086898074 4.847469359195511 -2.900091935988806 4.867008896132996 -2.632682748504902 L 5.289608516526273 -2.632682748504902 C 5.727615919456245 -2.632682748504902 6.084029907946608 -2.2763656643072236 6.084029907946608 -1.838261357084567 C 6.084029907946608 -1.400253954154595 5.727615919456245 -1.0438399656642328 5.289608516526273 -1.0438399656642328 L 5.289608516526273 -1.0442275828349672 L 5.040952101500098 -1.0442275828349672 L 5.040952101500098 -1.0438399656642328 L 4.370083683251382 -1.0438399656642328 C 4.310757456901507 -0.9512873823889811 4.238659586514228 -0.8675755564099052 4.155925196420578 -0.7951835506380602 L 5.289608516526273 -0.7951835506380602 C 5.865704536530406 -0.795183550638058 6.33268632297278 -1.2621653370804338 6.33268632297278 -1.838261357084567 C 6.33268632297278 -2.4143573770887015 5.865704536530405 -2.8813391635310763 5.289608516526271 -2.8813391635310763" fill="#facf0e" transform="matrix(1,0,0,1,0,0)" fill-rule="nonzero"></path></g><g clip-path="url(#bbfaa1a42-21c2-4f01-994f-e464d5119d30d9e53054-0b6f-4ce2-b518-9f0298757676)"><path d=" M 4.370180587544065 -1.0438399656642328 C 4.1639682527133175 -0.7221177139546073 3.803484283930243 -0.5082499400018534 3.393676030171205 -0.5082499400018534 C 2.98396468070485 -0.5082499400018534 2.623480711921776 -0.7221177139546069 2.4172683770910277 -1.0438399656642328 L 2.120935050064511 -1.0438399656642328 C 2.352148692407634 -0.574047954734032 2.835798017191592 -0.25 3.3936760301712052 -0.25 C 3.9516509474435013 -0.25 4.43530027222746 -0.574047954734032 4.666417010277899 -1.0438399656642328 Z" fill="#facf0e" transform="matrix(1,0,0,1,0,0)" fill-rule="nonzero"></path></g></g></g><defs><clipPath id="SvgjsClipPath1001"><path d=" M 0.4546657373696279 -4.247530101683207 h 5.87801105455762 v 3.997530101683207 h -5.87801105455762 Z"></path></clipPath><clipPath id="bbfaa1a42-21c2-4f01-994f-e464d5119d30d9e53054-0b6f-4ce2-b518-9f0298757676"><path d=" M 0.35776144468600574 -4.344400174468404 L 6.429590615656404 -4.344400174468404 L 6.429590615656404 -0.15309570731637745 L 0.35776144468600574 -0.15309570731637745 Z"></path></clipPath></defs></svg>